<svg width="20" height="20" viewBox="0 0 20 20" fill="none" xmlns="http://www.w3.org/2000/svg">
<g clip-path="url(#clip0_4_188)">
<path d="M17.752 15.307C17.4646 15.9708 17.1245 16.5818 16.7305 17.1436C16.1933 17.9094 15.7535 18.4395 15.4146 18.7339C14.8892 19.2171 14.3262 19.4646 13.7234 19.4787C13.2906 19.4787 12.7687 19.3555 12.1612 19.1057C11.5517 18.8571 10.9916 18.7339 10.4794 18.7339C9.94228 18.7339 9.36619 18.8571 8.75 19.1057C8.13288 19.3555 7.63572 19.4857 7.25562 19.4986C6.67755 19.5232 6.10135 19.2687 5.52621 18.7339C5.15912 18.4137 4.69997 17.8649 4.14992 17.0873C3.55977 16.257 3.07458 15.2941 2.69448 14.1963C2.2874 13.0106 2.08333 11.8625 2.08333 10.7509C2.08333 9.47756 2.35847 8.37935 2.90957 7.45905C3.34268 6.71983 3.91888 6.13671 4.64004 5.70864C5.36119 5.28057 6.1404 5.06242 6.97954 5.04847C7.43869 5.04847 8.04081 5.19049 8.78906 5.46962C9.5352 5.74969 10.0143 5.89171 10.2243 5.89171C10.3814 5.89171 10.9136 5.72564 11.8158 5.39456C12.669 5.08752 13.3891 4.96039 13.9791 5.01047C15.5776 5.13948 16.7785 5.76963 17.5772 6.9049C16.1476 7.77113 15.4404 8.9844 15.4544 10.5408C15.4673 11.7532 15.9071 12.762 16.7715 13.563C17.1632 13.9348 17.6007 14.2221 18.0874 14.4262C17.9818 14.7323 17.8704 15.0255 17.752 15.307ZM14.0858 0.880322C14.0858 1.83054 13.7386 2.71775 13.0467 3.53895C12.2116 4.51519 11.2016 5.07931 10.1063 4.9903C10.0924 4.8763 10.0843 4.75632 10.0843 4.63025C10.0843 3.71804 10.4814 2.7418 11.1866 1.94359C11.5387 1.53944 11.9865 1.20339 12.5295 0.935326C13.0713 0.671257 13.5838 0.525222 14.0658 0.500214C14.0799 0.627243 14.0858 0.75428 14.0858 0.88031V0.880322Z" fill="black"/>
</g>
<defs>
<clipPath id="clip0_4_188">
<rect width="19" height="19" fill="white" transform="translate(0.5 0.5)"/>
</clipPath>
</defs>
</svg>
