<svg width="274" height="50" viewBox="0 0 274 50" fill="none" xmlns="http://www.w3.org/2000/svg">
<path d="M21.1528 2.56412H48.1805L28.3097 32.0165H1.28204L21.1528 2.56412Z" fill="#007AFF"/>
<path d="M22.3364 34.7461L14.64 46.1538H42.9497L62.8205 16.7014H41.9262L29.7518 34.7461H22.3364Z" fill="#312ECB"/>
<path d="M105.659 38H96.3781V11.8182H105.736C108.37 11.8182 110.637 12.3423 112.537 13.3906C114.438 14.4304 115.899 15.9261 116.922 17.8778C117.953 19.8295 118.469 22.1648 118.469 24.8835C118.469 27.6108 117.953 29.9545 116.922 31.9148C115.899 33.875 114.429 35.3793 112.512 36.4276C110.603 37.4759 108.318 38 105.659 38ZM101.914 33.2571H105.429C107.066 33.2571 108.442 32.9673 109.559 32.3878C110.684 31.7997 111.527 30.892 112.09 29.6648C112.661 28.429 112.946 26.8352 112.946 24.8835C112.946 22.9489 112.661 21.3679 112.09 20.1406C111.527 18.9134 110.688 18.0099 109.571 17.4304C108.455 16.8509 107.078 16.5611 105.442 16.5611H101.914V33.2571ZM131.339 38.3835C129.354 38.3835 127.636 37.9616 126.187 37.1179C124.747 36.2656 123.635 35.081 122.851 33.5639C122.067 32.0384 121.675 30.2699 121.675 28.2585C121.675 26.2301 122.067 24.4574 122.851 22.9403C123.635 21.4148 124.747 20.2301 126.187 19.3864C127.636 18.5341 129.354 18.108 131.339 18.108C133.325 18.108 135.038 18.5341 136.479 19.3864C137.927 20.2301 139.044 21.4148 139.828 22.9403C140.612 24.4574 141.004 26.2301 141.004 28.2585C141.004 30.2699 140.612 32.0384 139.828 33.5639C139.044 35.081 137.927 36.2656 136.479 37.1179C135.038 37.9616 133.325 38.3835 131.339 38.3835ZM131.365 34.1648C132.268 34.1648 133.023 33.9091 133.628 33.3977C134.233 32.8778 134.689 32.1705 134.996 31.2756C135.311 30.3807 135.469 29.3622 135.469 28.2202C135.469 27.0781 135.311 26.0597 134.996 25.1648C134.689 24.2699 134.233 23.5625 133.628 23.0426C133.023 22.5227 132.268 22.2628 131.365 22.2628C130.453 22.2628 129.686 22.5227 129.064 23.0426C128.45 23.5625 127.986 24.2699 127.67 25.1648C127.364 26.0597 127.21 27.0781 127.21 28.2202C127.21 29.3622 127.364 30.3807 127.67 31.2756C127.986 32.1705 128.45 32.8778 129.064 33.3977C129.686 33.9091 130.453 34.1648 131.365 34.1648ZM144.545 45.3636V18.3636H149.915V21.6619H150.158C150.396 21.1335 150.741 20.5966 151.193 20.0511C151.653 19.4972 152.25 19.0369 152.983 18.6705C153.724 18.2955 154.645 18.108 155.744 18.108C157.176 18.108 158.497 18.483 159.707 19.233C160.918 19.9744 161.885 21.0952 162.609 22.5952C163.334 24.0866 163.696 25.9574 163.696 28.2074C163.696 30.3977 163.342 32.2472 162.635 33.7557C161.936 35.2557 160.981 36.3935 159.771 37.169C158.57 37.9361 157.223 38.3196 155.731 38.3196C154.675 38.3196 153.775 38.1449 153.034 37.7955C152.301 37.446 151.7 37.0071 151.231 36.4787C150.763 35.9418 150.405 35.4006 150.158 34.8551H149.991V45.3636H144.545ZM149.876 28.1818C149.876 29.3494 150.038 30.3679 150.362 31.2372C150.686 32.1065 151.155 32.7841 151.768 33.2699C152.382 33.7472 153.128 33.9858 154.006 33.9858C154.892 33.9858 155.642 33.7429 156.256 33.2571C156.869 32.7628 157.334 32.081 157.649 31.2116C157.973 30.3338 158.135 29.3239 158.135 28.1818C158.135 27.0483 157.977 26.0511 157.662 25.1903C157.347 24.3295 156.882 23.6562 156.268 23.1705C155.655 22.6847 154.9 22.4418 154.006 22.4418C153.119 22.4418 152.369 22.6761 151.756 23.1449C151.15 23.6136 150.686 24.2784 150.362 25.1392C150.038 26 149.876 27.0142 149.876 28.1818ZM176.275 38.3835C174.256 38.3835 172.517 37.9744 171.06 37.1562C169.611 36.3295 168.494 35.1619 167.71 33.6534C166.926 32.1364 166.534 30.3423 166.534 28.2713C166.534 26.2514 166.926 24.4787 167.71 22.9531C168.494 21.4276 169.598 20.2386 171.021 19.3864C172.453 18.5341 174.132 18.108 176.058 18.108C177.354 18.108 178.56 18.3168 179.676 18.7344C180.801 19.1435 181.781 19.7614 182.616 20.5881C183.46 21.4148 184.116 22.4545 184.585 23.7074C185.054 24.9517 185.288 26.4091 185.288 28.0795V29.5753H168.707V26.2003H180.162C180.162 25.4162 179.991 24.7216 179.65 24.1165C179.31 23.5114 178.837 23.0384 178.231 22.6974C177.635 22.348 176.94 22.1733 176.148 22.1733C175.321 22.1733 174.588 22.3651 173.949 22.7486C173.318 23.1236 172.824 23.6307 172.466 24.2699C172.108 24.9006 171.925 25.6037 171.916 26.3793V29.5881C171.916 30.5597 172.095 31.3991 172.453 32.1065C172.82 32.8139 173.335 33.3594 174 33.7429C174.665 34.1264 175.453 34.3182 176.365 34.3182C176.97 34.3182 177.524 34.233 178.027 34.0625C178.53 33.892 178.96 33.6364 179.318 33.2955C179.676 32.9545 179.949 32.5369 180.136 32.0426L185.173 32.375C184.918 33.5852 184.393 34.642 183.601 35.5455C182.817 36.4403 181.802 37.1392 180.558 37.642C179.322 38.1364 177.895 38.3835 176.275 38.3835ZM203.148 19.348C203.045 18.3168 202.606 17.5156 201.831 16.9446C201.055 16.3736 200.003 16.0881 198.673 16.0881C197.77 16.0881 197.007 16.2159 196.385 16.4716C195.763 16.7188 195.285 17.0639 194.953 17.5071C194.629 17.9503 194.467 18.4531 194.467 19.0156C194.45 19.4844 194.548 19.8935 194.761 20.2429C194.983 20.5923 195.285 20.8949 195.669 21.1506C196.052 21.3977 196.496 21.6151 196.998 21.8026C197.501 21.9815 198.038 22.1349 198.609 22.2628L200.962 22.8253C202.104 23.081 203.152 23.4219 204.106 23.848C205.061 24.2741 205.888 24.7983 206.587 25.4205C207.285 26.0426 207.827 26.7756 208.21 27.6193C208.602 28.4631 208.802 29.4304 208.811 30.5213C208.802 32.1236 208.393 33.5128 207.584 34.6889C206.783 35.8565 205.623 36.7642 204.106 37.4119C202.598 38.0511 200.778 38.3707 198.648 38.3707C196.534 38.3707 194.693 38.0469 193.125 37.3991C191.565 36.7514 190.347 35.7926 189.469 34.5227C188.599 33.2443 188.143 31.6634 188.101 29.7798H193.457C193.517 30.6577 193.768 31.3906 194.212 31.9787C194.663 32.5582 195.264 32.9972 196.014 33.2955C196.773 33.5852 197.629 33.7301 198.584 33.7301C199.521 33.7301 200.335 33.5937 201.025 33.321C201.724 33.0483 202.266 32.669 202.649 32.1832C203.033 31.6974 203.224 31.1392 203.224 30.5085C203.224 29.9205 203.05 29.4261 202.7 29.0256C202.359 28.625 201.856 28.2841 201.192 28.0028C200.535 27.7216 199.73 27.4659 198.775 27.2358L195.925 26.5199C193.717 25.983 191.974 25.1435 190.696 24.0014C189.418 22.8594 188.783 21.321 188.791 19.3864C188.783 17.8011 189.204 16.4162 190.057 15.2315C190.918 14.0469 192.098 13.1222 193.598 12.4574C195.098 11.7926 196.802 11.4602 198.712 11.4602C200.655 11.4602 202.351 11.7926 203.8 12.4574C205.257 13.1222 206.391 14.0469 207.2 15.2315C208.01 16.4162 208.427 17.7884 208.453 19.348H203.148ZM218.032 38.3707C216.779 38.3707 215.662 38.1534 214.682 37.7188C213.702 37.2756 212.926 36.6236 212.355 35.7628C211.793 34.8935 211.512 33.8111 211.512 32.5156C211.512 31.4247 211.712 30.5085 212.112 29.767C212.513 29.0256 213.059 28.429 213.749 27.9773C214.439 27.5256 215.223 27.1847 216.101 26.9545C216.987 26.7244 217.916 26.5625 218.888 26.4688C220.03 26.3494 220.951 26.2386 221.649 26.1364C222.348 26.0256 222.855 25.8636 223.171 25.6506C223.486 25.4375 223.644 25.1222 223.644 24.7045V24.6278C223.644 23.8182 223.388 23.1918 222.877 22.7486C222.374 22.3054 221.658 22.0838 220.729 22.0838C219.749 22.0838 218.969 22.3011 218.389 22.7358C217.81 23.1619 217.426 23.6989 217.239 24.3466L212.202 23.9375C212.458 22.7443 212.96 21.7131 213.71 20.8438C214.46 19.9659 215.428 19.2926 216.612 18.8239C217.806 18.3466 219.186 18.108 220.755 18.108C221.845 18.108 222.889 18.2358 223.887 18.4915C224.892 18.7472 225.783 19.1435 226.559 19.6804C227.343 20.2173 227.96 20.9077 228.412 21.7514C228.864 22.5866 229.09 23.5881 229.09 24.7557V38H223.925V35.277H223.772C223.456 35.8906 223.034 36.4318 222.506 36.9006C221.978 37.3608 221.343 37.723 220.601 37.9872C219.86 38.2429 219.003 38.3707 218.032 38.3707ZM219.591 34.6122C220.392 34.6122 221.1 34.4545 221.713 34.1392C222.327 33.8153 222.809 33.3807 223.158 32.8352C223.507 32.2898 223.682 31.6719 223.682 30.9815V28.8977C223.512 29.0085 223.277 29.1108 222.979 29.2045C222.689 29.2898 222.361 29.3707 221.995 29.4474C221.628 29.5156 221.262 29.5795 220.895 29.6392C220.529 29.6903 220.196 29.7372 219.898 29.7798C219.259 29.8736 218.701 30.0227 218.223 30.2273C217.746 30.4318 217.375 30.7088 217.111 31.0582C216.847 31.3991 216.715 31.8253 216.715 32.3366C216.715 33.0781 216.983 33.6449 217.52 34.0369C218.066 34.4205 218.756 34.6122 219.591 34.6122ZM238.914 38.3707C237.661 38.3707 236.545 38.1534 235.565 37.7188C234.585 37.2756 233.809 36.6236 233.238 35.7628C232.676 34.8935 232.394 33.8111 232.394 32.5156C232.394 31.4247 232.595 30.5085 232.995 29.767C233.396 29.0256 233.941 28.429 234.632 27.9773C235.322 27.5256 236.106 27.1847 236.984 26.9545C237.87 26.7244 238.799 26.5625 239.771 26.4688C240.913 26.3494 241.833 26.2386 242.532 26.1364C243.231 26.0256 243.738 25.8636 244.054 25.6506C244.369 25.4375 244.527 25.1222 244.527 24.7045V24.6278C244.527 23.8182 244.271 23.1918 243.759 22.7486C243.257 22.3054 242.541 22.0838 241.612 22.0838C240.632 22.0838 239.852 22.3011 239.272 22.7358C238.693 23.1619 238.309 23.6989 238.122 24.3466L233.085 23.9375C233.34 22.7443 233.843 21.7131 234.593 20.8438C235.343 19.9659 236.311 19.2926 237.495 18.8239C238.688 18.3466 240.069 18.108 241.637 18.108C242.728 18.108 243.772 18.2358 244.769 18.4915C245.775 18.7472 246.666 19.1435 247.441 19.6804C248.225 20.2173 248.843 20.9077 249.295 21.7514C249.747 22.5866 249.973 23.5881 249.973 24.7557V38H244.808V35.277H244.654C244.339 35.8906 243.917 36.4318 243.389 36.9006C242.86 37.3608 242.225 37.723 241.484 37.9872C240.742 38.2429 239.886 38.3707 238.914 38.3707ZM240.474 34.6122C241.275 34.6122 241.983 34.4545 242.596 34.1392C243.21 33.8153 243.691 33.3807 244.041 32.8352C244.39 32.2898 244.565 31.6719 244.565 30.9815V28.8977C244.394 29.0085 244.16 29.1108 243.862 29.2045C243.572 29.2898 243.244 29.3707 242.877 29.4474C242.511 29.5156 242.144 29.5795 241.778 29.6392C241.411 29.6903 241.079 29.7372 240.781 29.7798C240.142 29.8736 239.583 30.0227 239.106 30.2273C238.629 30.4318 238.258 30.7088 237.994 31.0582C237.73 31.3991 237.598 31.8253 237.598 32.3366C237.598 33.0781 237.866 33.6449 238.403 34.0369C238.948 34.4205 239.639 34.6122 240.474 34.6122ZM270.536 23.9631L265.55 24.2699C265.465 23.8437 265.282 23.4602 265 23.1193C264.719 22.7699 264.348 22.4929 263.888 22.2884C263.436 22.0753 262.895 21.9688 262.264 21.9688C261.421 21.9688 260.709 22.1477 260.13 22.5057C259.55 22.8551 259.26 23.3239 259.26 23.9119C259.26 24.3807 259.448 24.777 259.823 25.1009C260.198 25.4247 260.841 25.6847 261.753 25.8807L265.307 26.5966C267.216 26.9886 268.639 27.6193 269.577 28.4886C270.514 29.358 270.983 30.5 270.983 31.9148C270.983 33.2017 270.604 34.331 269.845 35.3026C269.095 36.2741 268.064 37.0327 266.752 37.5781C265.448 38.1151 263.943 38.3835 262.239 38.3835C259.639 38.3835 257.568 37.8423 256.026 36.7599C254.492 35.669 253.593 34.1861 253.328 32.3111L258.685 32.0298C258.847 32.8224 259.239 33.4276 259.861 33.8452C260.483 34.2543 261.28 34.4588 262.252 34.4588C263.206 34.4588 263.973 34.2756 264.553 33.9091C265.141 33.5341 265.439 33.0526 265.448 32.4645C265.439 31.9702 265.23 31.5653 264.821 31.25C264.412 30.9261 263.782 30.679 262.929 30.5085L259.529 29.831C257.611 29.4474 256.184 28.7827 255.246 27.8366C254.317 26.8906 253.853 25.6847 253.853 24.2188C253.853 22.9574 254.193 21.8707 254.875 20.9588C255.566 20.0469 256.533 19.3438 257.777 18.8494C259.03 18.3551 260.496 18.108 262.175 18.108C264.655 18.108 266.607 18.6321 268.03 19.6804C269.462 20.7287 270.297 22.1562 270.536 23.9631Z" fill="white"/>
</svg>
