<svg width="20" height="20" viewBox="0 0 20 20" fill="none" xmlns="http://www.w3.org/2000/svg">
<g clip-path="url(#clip0_4_183)">
<path d="M19.3148 10.2188C19.3148 9.57305 19.2624 8.92378 19.1507 8.28847H10.19V11.9467H15.3214C15.1084 13.1266 14.4243 14.1703 13.4224 14.8336V17.2073H16.4838C18.2815 15.5527 19.3148 13.1092 19.3148 10.2188Z" fill="#4285F4"/>
<path d="M10.19 19.5006C12.7522 19.5006 14.9129 18.6594 16.4873 17.2072L13.4259 14.8336C12.5742 15.413 11.4746 15.7411 10.1935 15.7411C7.71508 15.7411 5.61366 14.0691 4.85967 11.8211H1.70056V14.2681C3.31328 17.476 6.59805 19.5006 10.19 19.5006Z" fill="#34A853"/>
<path d="M4.85618 11.8211C4.45824 10.6412 4.45824 9.3636 4.85618 8.18374V5.73674H1.70057C0.353148 8.4211 0.353148 11.5837 1.70057 14.2681L4.85618 11.8211Z" fill="#FBBC04"/>
<path d="M10.19 4.26015C11.5444 4.2392 12.8534 4.74885 13.8343 5.68436L16.5466 2.97207C14.8292 1.35936 12.5497 0.472714 10.19 0.50064C6.59804 0.50064 3.31328 2.52526 1.70056 5.73672L4.85617 8.18372C5.60668 5.9322 7.71159 4.26015 10.19 4.26015Z" fill="#EA4335"/>
</g>
<defs>
<clipPath id="clip0_4_183">
<rect width="19" height="19" fill="white" transform="translate(0.5 0.5)"/>
</clipPath>
</defs>
</svg>
